#tb 0: 1/180000
0,      64800,      64800,        0,   622080, 0x6331caee
0,      72000,      72000,        0,   622080, 0xa459e690
0,      79200,      79200,        0,   622080, 0x6429c648
0,      86400,      86400,        0,   622080, 0xa49891ca
0,      93600,      93600,        0,   622080, 0x2a887404
0,     100800,     100800,        0,   622080, 0xe8d49705
0,     108000,     108000,        0,   622080, 0x1b627835
0,     115200,     115200,        0,   622080, 0x686858fd
0,     122400,     122400,        0,   622080, 0x2675174f
0,     129600,     129600,        0,   622080, 0x78470e7f
0,     136800,     136800,        0,   622080, 0xffb366ec
0,     144000,     144000,        0,   622080, 0xd575da72
0,     151200,     151200,        0,   622080, 0x5fb297f7
0,     158400,     158400,        0,   622080, 0xbac77ca0
0,     165600,     165600,        0,   622080, 0x3276ed72
0,     172800,     172800,        0,   622080, 0x264092b2
0,     180000,     180000,        0,   622080, 0x20ba1094
0,     187200,     187200,        0,   622080, 0x76cc3139
0,     194400,     194400,        0,   622080, 0x469a4902
0,     201600,     201600,        0,   622080, 0x0ed7b8f5
0,     208800,     208800,        0,   622080, 0xdc51aeac
0,     216000,     216000,        0,   622080, 0xee06aa36
0,     223200,     223200,        0,   622080, 0x7372405f
0,     230400,     230400,        0,   622080, 0x9e0ee776
0,     237600,     237600,        0,   622080, 0x39e6d8c9
0,     244800,     244800,        0,   622080, 0x51d9ac9a
0,     252000,     252000,        0,   622080, 0x2b63441d
0,     259200,     259200,        0,   622080, 0x58afbd5e
0,     266400,     266400,        0,   622080, 0xb972f716
0,     273600,     273600,        0,   622080, 0x6a6df129
0,     280800,     280800,        0,   622080, 0x28b1373d
